<svg xmlns="http://www.w3.org/2000/svg" width="512" height="512" viewBox="0 0 512 512">
  <rect width="512" height="512" fill="#16a34a" rx="64"/>
  <g fill="#fff" transform="translate(96 96) scale(0.625)">
    <path d="M256 48c-35.3 0-64 28.7-64 64v32h-64c-17.7 0-32 14.3-32 32v288c0 17.7 14.3 32 32 32h256c17.7 0 32-14.3 32-32V176c0-17.7-14.3-32-32-32h-64v-32c0-35.3-28.7-64-64-64zm-32 64c0-17.7 14.3-32 32-32s32 14.3 32 32v32h-64v-32zm-64 80h192v256H160V192zm32 32v64h32v-64h-32zm64 0v64h32v-64h-32zm64 0v64h32v-64h-32zm-128 96v64h32v-64h-32zm64 0v64h32v-64h-32zm64 0v64h32v-64h-32z"/>
  </g>
</svg>
